<?xml version="1.0" encoding="UTF-8"?>
<svg width="40px" height="20px" viewBox="0 0 380 163" version="1.1" xmlns="http://www.w3.org/2000/svg" xmlns:xlink="http://www.w3.org/1999/xlink">
    <!-- Generator: Sketch 54.1 (76490) - https://sketchapp.com -->
    <title>home-star-logo</title>
    <desc>Created with Sketch.</desc>
    <g id="Page-1" stroke="none" stroke-width="1" fill="none" fill-rule="evenodd">
        <g id="home-star-logo">
            <path d="M221.8,49.935 C206.18,54.007 206.954,70.686 223,75.799 C229.227,77.784 231.98,81.158 230.192,84.616 C228.574,87.743 221.766,88.587 215.6,86.425 C213.95,85.846 212.442,85.334 212.249,85.286 C211.842,85.186 209.998,92.231 210.297,92.741 C211.045,94.013 217.649,95.401 222.926,95.395 C234.002,95.382 240.417,90.252 240.391,81.429 C240.373,75.159 237.404,71.831 228.8,68.438 C222.006,65.758 220.4,64.466 220.4,61.68 C220.4,57.454 227.222,55.714 234.19,58.163 C236.725,59.054 236.555,59.203 237.774,55.01 C238.837,51.353 238.813,51.3 235.719,50.335 C233.074,49.511 224.385,49.261 221.8,49.935 M250.641,50.622 C245.682,52.046 246.046,51.523 245.913,57.407 L245.8,62.4 L243.684,62.521 L241.568,62.643 L241.684,65.921 L241.8,69.2 L243.8,69.4 L245.8,69.6 L246.028,78.8 C246.382,93.027 248.225,95.661 257.603,95.337 C262.562,95.166 262.676,95.063 262.482,90.9 L262.337,87.8 L260.549,87.8 C256.22,87.8 255.526,86.496 255.287,77.913 C255.038,68.975 254.824,69.457 259.104,69.316 L262.6,69.2 L262.716,65.9 L262.832,62.6 L259.43,62.6 C255.125,62.6 255.2,62.731 255.2,55.226 C255.2,52.022 255.065,49.419 254.9,49.442 C254.735,49.466 252.818,49.996 250.641,50.622 M40.679,50.054 C40.526,50.208 40.4,60.293 40.4,72.467 L40.4,94.6 L45.193,94.6 L49.985,94.6 L50.093,85.3 L50.2,76 L58.8,76 L67.4,76 L67.6,85.2 L67.8,94.4 L72.503,94.513 L77.207,94.625 L77.103,72.313 L77,50 L72.4,50 L67.8,50 L67.692,58.708 L67.584,67.416 L58.892,67.308 L50.2,67.2 L50,58.6 L49.8,50 L45.379,49.888 C42.947,49.826 40.832,49.901 40.679,50.054 M95.104,62.393 C79.546,66.675 78.733,89.457 93.956,94.585 C102.225,97.371 111.889,93.752 115.247,86.612 C121.846,72.579 109.972,58.302 95.104,62.393 M136.626,62.608 C135.54,63.032 133.876,64.14 132.928,65.071 C130.992,66.971 130.521,66.849 130.327,64.4 L130.2,62.8 L126.2,62.8 C122.31,62.8 122.201,62.825 122.229,63.7 C122.244,64.195 122.289,71.35 122.329,79.6 L122.4,94.6 L127,94.6 L131.6,94.6 L131.602,84.9 C131.605,72.452 132.664,69.4 136.982,69.4 C141.65,69.4 142.171,70.813 142.329,83.9 L142.458,94.6 L147.005,94.6 L151.552,94.6 L151.676,84.1 C151.828,71.235 152.528,69.406 157.306,69.401 C161.543,69.397 162.378,71.942 162.39,84.9 L162.4,94.6 L167.022,94.6 L171.643,94.6 L171.499,82.5 C171.343,69.365 171.228,68.563 169.081,65.71 C165.228,60.59 157.248,60.478 152.133,65.474 L150.465,67.103 L148.333,64.935 C145.182,61.733 140.997,60.902 136.626,62.608 M188.8,62.372 C173.477,66.636 172.983,90.066 188.119,94.664 C192.425,95.971 203.931,95.229 205.625,93.535 C205.963,93.197 205.133,88 204.667,87.534 C204.565,87.431 203.698,87.569 202.74,87.84 C195.559,89.874 186.4,87.045 186.4,82.793 L186.4,81.813 L196.885,81.707 L207.37,81.6 L207.746,80.011 C210.346,69.011 199.898,59.284 188.8,62.372 M275.907,62.364 C272.345,63.175 270,64.185 270,64.907 C270,66.724 271.344,70.254 271.961,70.057 C272.313,69.945 273.41,69.547 274.4,69.173 C279.997,67.059 286.8,68.724 286.8,72.207 C286.8,73.258 286.385,73.418 283.103,73.638 C272.431,74.352 266.215,79.733 267.434,87.2 C268.711,95.012 279.192,98.253 285.639,92.829 C287.013,91.673 287.846,91.912 288.076,93.529 C288.193,94.352 288.431,94.406 292.4,94.513 L296.6,94.626 L296.489,83.713 C296.333,68.535 295.431,65.873 289.525,63.181 C286.545,61.822 280.007,61.43 275.907,62.364 M318.6,62.273 C316.785,62.922 314.883,64.484 313.78,66.232 C312.304,68.57 311.662,68.305 311.519,65.3 L311.4,62.8 L307.247,62.685 L303.094,62.571 L303.347,63.835 C303.486,64.531 303.6,71.743 303.6,79.863 L303.6,94.625 L308.3,94.513 L313,94.4 L313.2,84.781 C313.422,74.116 313.429,74.087 316.248,71.937 C317.447,71.021 318.21,70.792 320.469,70.664 L323.226,70.508 L323.113,66.254 L323,62 L321.4,61.922 C320.52,61.879 319.26,62.037 318.6,62.273 M333.124,62.388 C325.946,64.365 322.576,71.897 326.543,77.099 C327.815,78.766 329.886,80.003 335.702,82.568 C343.776,86.129 337.218,90.882 328.474,87.808 C325.517,86.768 325.751,86.646 324.981,89.639 C324.647,90.938 324.283,92.299 324.171,92.665 C323.598,94.542 334.858,96.247 339.505,94.987 C351.618,91.702 351.701,80.15 339.646,75.318 C335.556,73.679 333.993,72.544 334.013,71.23 C334.056,68.417 338.142,67.375 342.8,68.988 C344.01,69.407 345.11,69.626 345.245,69.475 C345.66,69.009 346.833,63.777 346.606,63.409 C345.798,62.102 336.673,61.411 333.124,62.388 M196.226,68.854 C198.276,70.197 199.63,74.596 198.167,75.157 C197.181,75.536 187.467,75.43 186.842,75.034 C186.101,74.565 186.523,72.458 187.707,70.712 C189.565,67.973 193.553,67.103 196.226,68.854 M101.577,68.593 C109.054,70.738 108.652,87.391 101.089,88.81 C96.638,89.645 93.211,85.344 93.204,78.915 C93.196,71.56 96.73,67.203 101.577,68.593 M286.957,80.033 C288.408,83.813 285.115,89 281.264,89 C275.588,89 275.315,81.695 280.924,79.892 C283.051,79.208 286.673,79.293 286.957,80.033" id="path0" fill="#FAFBFB"></path>
            <path d="M18.4,1 C18.4,1.22 18.128,1.4 17.795,1.4 C17.462,1.4 16.832,1.58 16.395,1.8 C15.958,2.02 15.242,2.38 14.805,2.6 C14.368,2.82 13.738,3 13.405,3 C13.072,3 12.8,3.18 12.8,3.4 C12.8,3.62 12.522,3.8 12.182,3.8 C11.842,3.8 11.127,4.237 10.593,4.771 C10.059,5.305 9.077,6.064 8.411,6.457 C7.745,6.851 7.2,7.421 7.2,7.726 C7.2,8.03 6.66,8.783 6,9.4 C5.34,10.017 4.8,10.809 4.8,11.16 C4.8,11.512 4.62,11.8 4.4,11.8 C4.18,11.8 4,12.16 4,12.6 C4,13.04 3.82,13.4 3.6,13.4 C3.38,13.4 3.2,13.76 3.2,14.2 C3.2,14.64 3.02,15 2.8,15 C2.58,15 2.4,15.54 2.4,16.2 C2.4,16.86 2.22,17.4 2,17.4 C1.78,17.4 1.6,18.019 1.6,18.776 C1.6,19.533 1.42,20.264 1.2,20.4 C0.657,20.736 0.657,40.864 1.2,41.2 C1.42,41.336 1.6,42.888 1.6,44.65 C1.6,46.411 1.77,48.17 1.978,48.559 C2.186,48.947 2.39,50.83 2.433,52.743 C2.475,54.655 2.665,56.316 2.855,56.434 C3.045,56.551 3.2,58.336 3.2,60.4 C3.2,62.47 3.379,64.264 3.6,64.4 C3.82,64.536 4,65.897 4,67.424 C4,68.951 4.167,70.2 4.372,70.2 C4.576,70.2 4.843,71.775 4.966,73.7 C5.518,82.388 5.681,84.024 6.029,84.38 C6.233,84.589 6.4,85.703 6.4,86.856 C6.4,88.009 6.58,89.064 6.8,89.2 C7.02,89.336 7.2,90.506 7.2,91.8 C7.2,93.094 7.38,94.264 7.6,94.4 C7.82,94.536 8,95.346 8,96.2 C8,97.054 8.18,97.864 8.4,98 C8.62,98.136 8.8,98.856 8.8,99.6 C8.8,100.344 8.98,101.064 9.2,101.2 C9.42,101.336 9.6,101.977 9.6,102.624 C9.6,103.271 9.78,103.8 10,103.8 C10.22,103.8 10.4,104.149 10.4,104.576 C10.4,105.003 10.58,105.464 10.8,105.6 C11.02,105.736 11.2,106.287 11.2,106.824 C11.2,107.361 11.335,107.801 11.5,107.803 C11.811,107.806 12.8,109.703 12.8,110.296 C12.8,110.482 13.16,111.02 13.6,111.492 C14.04,111.964 14.4,112.587 14.4,112.875 C14.4,113.164 14.55,113.4 14.732,113.4 C14.915,113.4 15.32,113.895 15.632,114.5 C15.945,115.105 16.695,116.077 17.3,116.66 C17.905,117.244 18.4,117.864 18.4,118.039 C18.4,118.464 20.463,120.6 20.874,120.6 C21.053,120.6 21.941,121.32 22.848,122.2 C23.755,123.08 24.745,123.8 25.048,123.8 C25.352,123.8 25.6,123.98 25.6,124.2 C25.6,124.42 25.96,124.6 26.4,124.6 C26.84,124.6 27.201,124.735 27.203,124.9 C27.207,125.259 29.144,126.2 29.88,126.2 C30.166,126.2 30.4,126.38 30.4,126.6 C30.4,126.82 30.749,127 31.176,127 C31.603,127 32.064,127.18 32.2,127.4 C32.336,127.62 32.876,127.8 33.4,127.8 C33.924,127.8 34.464,127.98 34.6,128.2 C34.736,128.42 35.456,128.6 36.2,128.6 C36.944,128.6 37.664,128.78 37.8,129 C37.964,129.265 75.951,129.4 150.465,129.4 L262.882,129.4 L265.045,131.3 C266.235,132.345 268.575,134.505 270.245,136.1 C271.916,137.695 273.467,139 273.694,139 C273.921,139 274.397,139.324 274.753,139.719 C275.109,140.114 276.03,140.875 276.8,141.408 C277.57,141.942 278.549,142.698 278.975,143.089 C279.402,143.48 279.921,143.8 280.129,143.8 C280.336,143.8 280.797,144.116 281.153,144.503 C281.509,144.889 282.295,145.46 282.9,145.77 C283.505,146.081 284,146.485 284,146.668 C284,146.85 284.278,147 284.617,147 C284.956,147 285.62,147.36 286.092,147.8 C286.564,148.24 287.187,148.6 287.475,148.6 C287.764,148.6 288,148.752 288,148.937 C288,149.123 288.855,149.708 289.9,150.237 C290.945,150.767 291.86,151.335 291.933,151.5 C292.007,151.665 292.412,151.8 292.833,151.8 C293.255,151.8 293.6,151.98 293.6,152.2 C293.6,152.42 293.96,152.6 294.4,152.6 C294.84,152.6 295.2,152.78 295.2,153 C295.2,153.22 295.56,153.4 296,153.4 C296.44,153.4 296.8,153.58 296.8,153.8 C296.8,154.02 297.16,154.2 297.6,154.2 C298.04,154.2 298.4,154.38 298.4,154.6 C298.4,154.82 298.76,155 299.2,155 C299.64,155 300,155.18 300,155.4 C300,155.62 300.349,155.8 300.776,155.8 C301.203,155.8 301.664,155.98 301.8,156.2 C301.936,156.42 302.487,156.6 303.024,156.6 C303.561,156.6 304,156.78 304,157 C304,157.22 304.349,157.4 304.776,157.4 C305.203,157.4 305.664,157.58 305.8,157.8 C305.936,158.02 306.487,158.2 307.024,158.2 C307.561,158.2 308,158.38 308,158.6 C308,158.82 308.54,159 309.2,159 C309.86,159 310.4,159.18 310.4,159.4 C310.4,159.62 310.929,159.8 311.576,159.8 C312.223,159.8 312.864,159.98 313,160.2 C313.136,160.42 313.771,160.6 314.411,160.6 C315.052,160.6 316.217,160.96 317,161.4 C318.184,162.065 319.166,162.2 322.812,162.2 L327.2,162.2 L327.2,160.6 C327.2,159.587 327.017,159 326.7,158.999 C326.425,158.999 325.57,158.459 324.8,157.8 C324.03,157.141 323.262,156.601 323.094,156.601 C322.661,156.6 316.8,150.69 316.8,150.255 C316.8,150.059 316.527,149.671 316.193,149.394 C315.859,149.117 315.298,148.285 314.947,147.545 C314.596,146.805 314.149,146.2 313.954,146.2 C313.759,146.2 313.6,145.84 313.6,145.4 C313.6,144.96 313.42,144.6 313.2,144.6 C312.98,144.6 312.8,144.161 312.8,143.624 C312.8,143.087 312.62,142.536 312.4,142.4 C312.18,142.264 312,141.803 312,141.376 C312,140.949 311.82,140.6 311.6,140.6 C311.38,140.6 311.2,140.161 311.2,139.624 C311.2,139.087 311.02,138.536 310.8,138.4 C310.58,138.264 310.4,137.569 310.4,136.856 C310.4,136.143 310.237,135.389 310.039,135.18 C309.84,134.971 309.592,133.99 309.487,133 C309.383,132.01 309.165,130.798 309.004,130.307 L308.711,129.415 L328.255,129.252 C347.446,129.092 352,128.882 352,128.161 C352,127.963 352.54,127.8 353.2,127.8 C353.86,127.8 354.4,127.62 354.4,127.4 C354.4,127.18 354.76,127 355.2,127 C355.64,127 356,126.82 356,126.6 C356,126.38 356.36,126.2 356.8,126.2 C357.24,126.2 357.6,126.02 357.6,125.8 C357.6,125.58 357.793,125.4 358.028,125.4 C359.311,125.4 367.716,117.896 369.038,115.57 C369.278,115.146 369.728,114.35 370.038,113.8 C370.347,113.25 370.714,112.71 370.854,112.6 C371.428,112.147 372.8,109.319 372.8,108.588 C372.8,108.155 372.98,107.8 373.2,107.8 C373.42,107.8 373.6,107.528 373.6,107.195 C373.6,106.607 373.767,106.182 374.738,104.305 C374.992,103.813 375.2,102.958 375.2,102.405 C375.2,101.852 375.361,101.4 375.558,101.4 C375.913,101.4 376.225,99.858 376.652,96 C376.774,94.9 377.037,93.829 377.237,93.62 C377.437,93.411 377.6,91.127 377.6,88.544 C377.6,85.844 377.77,83.742 378,83.6 C378.232,83.457 378.4,81.27 378.4,78.4 C378.4,75.676 378.562,73.347 378.76,73.225 C379.284,72.901 379.34,54.734 378.818,54.411 C378.588,54.269 378.4,53.443 378.4,52.576 C378.4,51.709 378.22,51 378,51 C377.78,51 377.6,50.548 377.6,49.995 C377.6,49.442 377.42,48.632 377.2,48.195 C376.98,47.758 376.62,47.042 376.4,46.605 C376.18,46.168 376,45.538 376,45.205 C376,44.872 375.862,44.6 375.694,44.6 C375.526,44.6 375.079,43.885 374.701,43.012 C373.918,41.205 366.386,33.4 365.425,33.4 C365.081,33.4 364.8,33.22 364.8,33 C364.8,32.78 364.575,32.596 364.3,32.591 C364.025,32.586 363.35,32.23 362.8,31.8 C362.25,31.37 361.395,31.014 360.9,31.009 C360.405,31.004 360,30.82 360,30.6 C360,30.38 359.64,30.2 359.2,30.2 C358.76,30.2 358.4,30.02 358.4,29.8 C358.4,29.58 357.86,29.4 357.2,29.4 C356.54,29.4 356,29.22 356,29 C356,28.78 355.111,28.6 354.024,28.6 C352.937,28.6 351.936,28.42 351.8,28.2 C351.66,27.973 349.663,27.8 347.176,27.8 C344.713,27.8 342.8,27.636 342.8,27.424 C342.8,27.073 340.993,26.936 329.2,26.394 C326.67,26.277 324.24,26.011 323.8,25.802 C323.046,25.443 321.313,25.307 310.609,24.768 C308.194,24.646 306.034,24.399 305.809,24.217 C305.584,24.036 303.334,23.858 300.809,23.821 C298.284,23.784 296.124,23.607 296.009,23.428 C295.894,23.249 294,23.069 291.8,23.028 C289.6,22.987 287.629,22.783 287.42,22.576 C287.211,22.369 285.017,22.2 282.544,22.2 C280.071,22.2 277.949,22.041 277.829,21.846 C277.709,21.652 275.599,21.463 273.142,21.427 C270.684,21.39 268.354,21.189 267.963,20.98 C267.572,20.771 265.477,20.6 263.306,20.6 C261.136,20.6 259.189,20.431 258.98,20.225 C258.771,20.018 256.62,19.755 254.2,19.64 C241.992,19.059 239.786,18.9 239.595,18.592 C239.398,18.272 236.625,18.058 226.4,17.571 C223.87,17.451 221.629,17.183 221.42,16.976 C221.211,16.769 218.837,16.6 216.144,16.6 C213.311,16.6 211.143,16.431 211,16.2 C210.864,15.98 209.154,15.8 207.2,15.8 C205.246,15.8 203.548,15.639 203.426,15.443 C203.305,15.246 200.918,15.058 198.121,15.024 C195.324,14.99 192.848,14.812 192.618,14.628 C192.388,14.445 190.404,14.262 188.208,14.222 C186.012,14.182 184.119,13.992 184,13.8 C183.797,13.471 181.176,13.291 169.1,12.774 C166.295,12.654 164,12.386 164,12.178 C164,11.966 162.252,11.8 160.024,11.8 C157.804,11.8 155.938,11.623 155.8,11.4 C155.66,11.173 153.663,11 151.176,11 C148.525,11 146.8,10.842 146.8,10.6 C146.8,10.355 144.867,10.2 141.8,10.2 C139.05,10.2 136.8,10.04 136.8,9.844 C136.8,9.649 134.794,9.461 132.342,9.427 C129.891,9.394 127.563,9.194 127.169,8.983 C126.775,8.772 124.641,8.6 122.426,8.6 C120.212,8.6 118.4,8.452 118.4,8.271 C118.4,8.09 116.202,7.897 113.516,7.843 C110.83,7.788 108.445,7.621 108.216,7.472 C107.807,7.204 103.061,6.82 94.8,6.384 C92.49,6.262 90.078,5.991 89.44,5.781 C88.802,5.572 86.453,5.4 84.22,5.4 C81.987,5.4 79.989,5.232 79.78,5.026 C79.571,4.82 77.6,4.553 75.4,4.432 C73.2,4.312 69.06,4.034 66.2,3.816 C63.34,3.598 58.93,3.308 56.4,3.173 C53.87,3.038 51.62,2.784 51.4,2.61 C51.18,2.435 49.11,2.261 46.8,2.224 C44.49,2.186 42.54,1.985 42.467,1.778 C42.393,1.57 40.919,1.4 39.19,1.4 C37.462,1.4 35.936,1.22 35.8,1 C35.648,0.753 32.263,0.6 26.976,0.6 C21.525,0.6 18.4,0.746 18.4,1 M231.8,48.591 C235.731,49.224 239.6,50.601 239.6,51.367 C239.6,52.341 237.597,59.136 237.185,59.563 C236.975,59.78 235.598,59.56 233.777,59.019 C228.134,57.344 223.008,57.864 221.781,60.236 C220.209,63.277 221.904,64.823 230.312,68.018 C237.796,70.863 241.351,75.301 241.351,81.8 C241.351,93.332 227.933,99.641 213.194,95.04 C208.798,93.667 208.868,93.797 209.987,89.056 C211.244,83.73 211.145,83.852 213.481,84.755 C220.782,87.575 228.203,87.172 229.566,83.883 C230.645,81.277 228.733,79 223.946,77.193 C213.593,73.283 209.8,69.371 209.8,62.6 C209.8,52.892 219.633,46.631 231.8,48.591 M256.49,55.306 L256.6,61.53 L259.6,61.457 C263.688,61.359 263.652,61.317 263.515,66.033 L263.4,70 L259.9,70.116 L256.4,70.231 L256.4,77.242 C256.4,86.204 256.564,86.583 260.451,86.594 C263.467,86.602 263.656,86.902 263.516,91.455 C263.373,96.071 263.121,96.266 257.258,96.319 C252.707,96.359 250.001,95.418 247.947,93.079 C245.578,90.38 245.428,89.645 245.205,79.6 L245,70.4 L243,70.2 L241,70 L240.885,66.033 C240.755,61.555 240.88,61.328 243.4,61.485 L245,61.585 L245.113,56.6 C245.248,50.664 244.788,51.242 250.651,49.638 C256.695,47.984 256.355,47.654 256.49,55.306 M50.8,57.8 L51,66.4 L58.9,66.508 L66.8,66.617 L66.8,58.441 C66.8,53.945 66.909,49.981 67.043,49.633 C67.405,48.688 77.795,48.688 78.157,49.633 C78.656,50.934 78.429,94.811 77.92,95.32 C77.416,95.824 68.646,96.023 67.433,95.557 C66.881,95.345 66.8,94.12 66.8,85.949 L66.8,76.583 L58.9,76.692 L51,76.8 L50.8,86.2 L50.6,95.6 L45.2,95.6 L39.8,95.6 L39.696,72.8 C39.639,60.26 39.68,49.77 39.788,49.488 C39.937,49.1 41.267,49.004 45.292,49.088 L50.6,49.2 L50.8,57.8 M106.027,61.644 C113.257,63.786 118,70.449 118,78.466 C118,100.251 85.883,103.308 82.353,81.859 C80.097,68.148 92.431,57.616 106.027,61.644 M145.848,61.823 C146.784,62.276 148.208,63.376 149.013,64.267 L150.477,65.887 L151.938,64.478 C158.319,58.324 168.424,60.344 171.624,68.412 C172.745,71.24 173.389,94.008 172.382,95.221 C171.784,95.942 162.216,96.073 161.779,95.366 C161.632,95.128 161.537,90.853 161.568,85.866 C161.647,73.322 160.811,70.2 157.374,70.2 C153.202,70.2 152.64,71.85 152.4,84.8 L152.2,95.6 L147,95.6 L141.8,95.6 L141.59,84.6 C141.345,71.77 140.886,70.2 137.38,70.2 C133.397,70.2 132.8,72.066 132.8,84.511 C132.8,96.926 133.374,95.864 126.744,95.713 L121.8,95.6 L121.535,79 C121.356,67.775 121.405,62.238 121.684,61.9 C121.964,61.562 123.37,61.4 126.02,61.4 C130.398,61.4 131.2,61.776 131.2,63.829 C131.2,65.272 131.578,65.303 132.83,63.962 C135.54,61.062 142.062,59.99 145.848,61.823 M198.575,61.573 C204.629,63.394 208.274,68.889 208.694,76.826 C209.025,83.078 209.945,82.6 197.586,82.6 C186.526,82.6 186.57,82.59 188.283,84.626 C190.536,87.303 197.115,88.318 202.654,86.843 C205.258,86.15 205.441,86.284 206.179,89.414 C207.356,94.409 207.308,94.484 202.2,95.625 C187.009,99.018 176.365,92.355 176.284,79.4 C176.203,66.551 186.843,58.042 198.575,61.573 M288.227,61.606 C295.736,63.912 297.068,67.185 297.262,83.8 L297.4,95.6 L292.644,95.6 C287.65,95.6 287.634,95.594 287.018,93.64 C286.787,92.906 286.748,92.909 285.885,93.721 C280.62,98.667 270.432,96.622 267.341,90 C263.437,81.634 270.35,73.654 282.297,72.736 C285.343,72.502 285.629,72.408 285.52,71.68 C285.116,68.986 279.019,68.308 273.862,70.383 C272.357,70.989 270.979,71.331 270.801,71.142 C270.053,70.35 268.74,64.554 269.188,64.015 C271.225,61.561 283.162,60.05 288.227,61.606 M324,65.2 L324.2,69.2 L325.068,67.579 C327.556,62.931 331.119,61.2 338.2,61.2 C347.4,61.2 348.297,61.863 346.851,67.6 C346.059,70.743 345.649,71.026 343.269,70.074 C339.165,68.432 335.4,68.976 335.4,71.211 C335.4,72.547 335.899,72.87 341.331,75.046 C356.819,81.251 348.682,98.416 331.287,96.235 C323.631,95.275 322.675,94.391 324.037,89.533 C325.167,85.503 325.079,85.548 329,87.003 C333.78,88.778 338,88.194 338,85.759 C338,84.493 337.085,83.898 332.6,82.248 C327.828,80.493 324.495,77.116 324.103,73.638 L323.903,71.862 L322.006,71.601 C315.338,70.684 314.045,73.12 314.017,86.657 C314.002,94.172 313.917,95.346 313.367,95.557 C312.154,96.023 303.384,95.824 302.88,95.32 C302.056,94.496 302.204,61.961 303.033,61.643 C303.381,61.509 305.346,61.4 307.4,61.4 C312.304,61.4 312.4,61.447 312.4,63.843 C312.4,66.202 312.433,66.209 314.217,64.234 C316.316,61.91 318.49,60.959 321.4,61.091 L323.8,61.2 L324,65.2 M189.576,70.081 C188.511,70.977 187.2,73.133 187.2,73.987 C187.2,74.104 189.63,74.2 192.6,74.2 C198.438,74.2 198.437,74.201 197.604,72.011 C196.422,68.901 192.188,67.884 189.576,70.081 M97.273,70.212 C93.015,72.808 92.939,84.045 97.159,86.885 C101.735,89.965 106,85.968 106,78.6 C106,71.316 101.91,67.385 97.273,70.212 M281.464,80.765 C276.655,82.08 276.385,87.982 281.133,87.982 C284.097,87.982 285.88,86.032 286.055,82.6 L286.168,80.4 L284.784,80.318 C284.023,80.272 282.529,80.474 281.464,80.765" id="path1" fill="#858585"></path>
            <path d="M225.9,48.893 C226.835,48.977 228.365,48.977 229.3,48.893 C230.235,48.809 229.47,48.74 227.6,48.74 C225.73,48.74 224.965,48.809 225.9,48.893 M255.19,48.863 C255.443,48.989 255.6,51.405 255.6,55.184 C255.6,62.379 255.445,62.119 259.819,62.282 L263,62.4 L263,66.063 C263,68.077 263.135,69.641 263.3,69.539 C263.694,69.294 263.678,62.941 263.281,62.318 C263.092,62.02 261.677,61.79 259.587,61.718 L256.2,61.6 L256,55.233 C255.852,50.521 255.667,48.839 255.29,48.763 C255.01,48.706 254.964,48.751 255.19,48.863 M221,49.4 C219.981,49.838 221.032,49.838 222.4,49.4 C223.204,49.143 223.243,49.077 222.6,49.068 C222.16,49.062 221.44,49.211 221,49.4 M233.2,49.4 C234.568,49.838 235.619,49.838 234.6,49.4 C234.16,49.211 233.44,49.062 233,49.068 C232.357,49.077 232.396,49.143 233.2,49.4 M39.784,49.9 C39.295,51.176 39.806,95.135 40.31,95.237 C40.59,95.294 40.636,95.249 40.41,95.137 C39.761,94.815 39.849,49.927 40.5,49.665 C40.892,49.507 40.889,49.456 40.487,49.432 C40.206,49.414 39.889,49.625 39.784,49.9 M43.1,49.695 C44.255,49.776 46.145,49.776 47.3,49.695 C48.455,49.614 47.51,49.548 45.2,49.548 C42.89,49.548 41.945,49.614 43.1,49.695 M49.892,49.688 C50.248,49.941 50.413,52.351 50.492,58.418 L50.6,66.8 L58.3,66.813 L66.001,66.827 L58.408,66.705 L50.816,66.583 L50.708,58.124 C50.617,51.008 50.505,49.64 50,49.503 C49.564,49.384 49.535,49.435 49.892,49.688 M67.379,49.911 C67.271,50.192 67.232,54.017 67.292,58.411 L67.402,66.4 L67.601,57.9 C67.796,49.571 67.777,48.874 67.379,49.911 M70.3,49.695 C71.455,49.776 73.345,49.776 74.5,49.695 C75.655,49.614 74.71,49.548 72.4,49.548 C70.09,49.548 69.145,49.614 70.3,49.695 M77.097,49.691 C77.479,49.962 77.618,55.077 77.702,72.021 L77.81,94 L77.805,71.833 C77.801,52.472 77.724,49.646 77.2,49.503 C76.759,49.383 76.732,49.433 77.097,49.691 M245.467,51.667 C245.32,51.813 245.2,54.144 245.2,56.846 L245.2,61.758 L243.1,61.917 L241,62.076 L243.2,62.038 L245.4,62 L245.6,56.699 C245.71,53.784 245.785,51.399 245.767,51.399 C245.748,51.4 245.613,51.52 245.467,51.667 M213.578,53.7 L212.2,55.2 L213.7,53.822 C215.096,52.538 215.384,52.2 215.078,52.2 C215.012,52.2 214.337,52.875 213.578,53.7 M226.5,57.687 C227.105,57.778 228.095,57.778 228.7,57.687 C229.305,57.595 228.81,57.52 227.6,57.52 C226.39,57.52 225.895,57.595 226.5,57.687 M210.2,59.4 C210.048,60.091 210.007,60.741 210.109,60.842 C210.211,60.944 210.409,60.453 210.55,59.75 C210.883,58.083 210.56,57.76 210.2,59.4 M220.893,61.8 C220.893,62.57 220.975,62.885 221.076,62.5 C221.176,62.115 221.176,61.485 221.076,61.1 C220.975,60.715 220.893,61.03 220.893,61.8 M99.1,61.289 C99.815,61.378 100.985,61.378 101.7,61.289 C102.415,61.201 101.83,61.128 100.4,61.128 C98.97,61.128 98.385,61.201 99.1,61.289 M140.105,61.287 C140.714,61.379 141.614,61.377 142.105,61.282 C142.597,61.187 142.1,61.111 141,61.114 C139.9,61.117 139.497,61.195 140.105,61.287 M159.7,61.287 C160.305,61.378 161.295,61.378 161.9,61.287 C162.505,61.195 162.01,61.12 160.8,61.12 C159.59,61.12 159.095,61.195 159.7,61.287 M192.307,61.29 C193.026,61.379 194.106,61.377 194.707,61.286 C195.308,61.195 194.72,61.122 193.4,61.124 C192.08,61.126 191.588,61.201 192.307,61.29 M280.5,61.291 C281.325,61.378 282.675,61.378 283.5,61.291 C284.325,61.205 283.65,61.134 282,61.134 C280.35,61.134 279.675,61.205 280.5,61.291 M320.2,61.203 C321.114,61.521 323.529,61.609 323.348,61.316 C323.241,61.142 322.398,61.014 321.476,61.032 C320.554,61.049 319.98,61.126 320.2,61.203 M336.7,61.289 C337.415,61.378 338.585,61.378 339.3,61.289 C340.015,61.201 339.43,61.128 338,61.128 C336.57,61.128 335.985,61.201 336.7,61.289 M121.792,62.213 C121.642,62.455 121.628,62.761 121.76,62.893 C121.892,63.025 122,62.923 122,62.667 C122,62.064 130.239,62.009 130.537,62.61 C130.649,62.836 130.694,62.791 130.637,62.51 C130.502,61.837 122.196,61.559 121.792,62.213 M134.9,62.596 C133.094,63.697 133.263,63.966 135.1,62.914 C136.948,61.856 137.023,61.8 136.567,61.801 C136.365,61.802 135.615,62.16 134.9,62.596 M302.799,62.087 C302.799,62.259 304.716,62.343 307.059,62.273 C310.246,62.178 311.413,62.279 311.69,62.673 C311.981,63.087 312.026,63.071 311.898,62.6 C311.721,61.95 302.801,61.447 302.799,62.087 M168.2,64.2 C169.059,65.08 169.852,65.8 169.962,65.8 C170.072,65.8 169.459,65.08 168.6,64.2 C167.741,63.32 166.948,62.6 166.838,62.6 C166.728,62.6 167.341,63.32 168.2,64.2 M240.864,65.876 C240.829,67.788 240.935,69.437 241.1,69.539 C241.265,69.642 241.35,68.618 241.289,67.263 C241.089,62.852 240.929,62.33 240.864,65.876 M314.237,64.643 L312.4,66.687 L312.333,64.943 L312.266,63.2 L312.105,64.753 C311.859,67.148 312.434,67.155 314.527,64.782 C315.585,63.582 316.365,62.6 316.262,62.6 C316.159,62.6 315.247,63.519 314.237,64.643 M203.6,65.2 C204.346,65.97 205.047,66.6 205.157,66.6 C205.267,66.6 204.746,65.97 204,65.2 C203.254,64.43 202.553,63.8 202.443,63.8 C202.333,63.8 202.854,64.43 203.6,65.2 M293.2,65.2 C293.946,65.97 294.647,66.6 294.757,66.6 C294.867,66.6 294.346,65.97 293.6,65.2 C292.854,64.43 292.153,63.8 292.043,63.8 C291.933,63.8 292.454,64.43 293.2,65.2 M121.782,79.4 C121.782,87.87 121.835,91.335 121.899,87.1 C121.964,82.865 121.964,75.935 121.899,71.7 C121.835,67.465 121.782,70.93 121.782,79.4 M210.006,64.833 C210.009,65.255 210.195,65.87 210.418,66.2 C210.715,66.638 210.752,66.476 210.556,65.6 C210.227,64.129 209.998,63.81 210.006,64.833 M302.992,80.967 C302.999,93.215 303.081,95.156 303.6,95.297 C304.039,95.417 304.067,95.367 303.705,95.11 C303.332,94.846 303.183,91.321 303.097,80.78 L302.984,66.8 L302.992,80.967 M190.846,68.563 C190.507,68.778 191.051,68.832 192.246,68.704 C193.321,68.588 194.275,68.428 194.367,68.347 C194.729,68.028 191.365,68.235 190.846,68.563 M115.478,69.995 C115.844,70.762 116.214,71.319 116.301,71.232 C116.484,71.049 115.27,68.6 114.996,68.6 C114.895,68.6 115.112,69.228 115.478,69.995 M211.943,69.259 C212.482,70.308 215.793,73.269 217.3,74.05 C219.019,74.941 218.595,74.461 216.415,73.049 C215.323,72.341 213.771,71.006 212.966,70.081 C212.161,69.157 211.701,68.787 211.943,69.259 M337.705,68.887 C338.314,68.979 339.214,68.977 339.705,68.882 C340.197,68.787 339.7,68.711 338.6,68.714 C337.5,68.717 337.097,68.795 337.705,68.887 M188.575,70.3 L187.4,71.6 L188.7,70.425 C189.415,69.779 190,69.194 190,69.125 C190,68.816 189.67,69.088 188.575,70.3 M345.6,69.78 C345.6,70.096 345.293,70.213 344.799,70.084 C344.359,69.969 344.1,70.038 344.223,70.237 C344.346,70.437 344.696,70.6 345,70.6 C345.633,70.6 346.198,69.865 345.84,69.507 C345.708,69.375 345.6,69.498 345.6,69.78 M134.487,70.9 C133.868,71.505 133.73,71.696 134.181,71.324 C134.632,70.952 135.45,70.469 136,70.249 C136.688,69.975 136.784,69.843 136.306,69.825 C135.925,69.811 135.106,70.295 134.487,70.9 M154.976,70.422 C154.212,71.034 154.213,71.038 155,70.676 C155.44,70.474 156.07,70.208 156.4,70.086 C156.918,69.893 156.915,69.859 156.376,69.832 C156.034,69.814 155.404,70.08 154.976,70.422 M245.199,77.919 L245.398,86 L245.508,78.229 C245.568,73.955 245.479,70.318 245.309,70.148 C245.139,69.978 245.09,73.475 245.199,77.919 M255.776,70.318 C255.667,70.602 255.633,73.527 255.7,76.818 L255.823,82.8 L255.912,76.533 C255.976,71.963 256.135,70.212 256.5,70.065 C256.892,69.907 256.889,69.856 256.487,69.832 C256.206,69.814 255.886,70.033 255.776,70.318 M140.034,71.247 C140.565,71.933 141.08,72.423 141.179,72.335 C141.277,72.247 140.843,71.686 140.213,71.088 L139.069,70 L140.034,71.247 M160.034,71.247 C160.565,71.933 161.08,72.423 161.179,72.335 C161.277,72.247 160.843,71.686 160.213,71.088 L159.069,70 L160.034,71.247 M323.6,70.557 C323.6,70.78 322.565,71.031 321.3,71.116 L319,71.27 L321.483,71.235 C323.951,71.2 323.967,71.207 324.119,72.4 C324.256,73.478 324.278,73.45 324.336,72.124 C324.371,71.312 324.22,70.536 324,70.4 C323.78,70.264 323.6,70.335 323.6,70.557 M237.4,73 C238.259,73.88 239.052,74.6 239.162,74.6 C239.272,74.6 238.659,73.88 237.8,73 C236.941,72.12 236.148,71.4 236.038,71.4 C235.928,71.4 236.541,72.12 237.4,73 M172.175,82.6 C172.175,88.65 172.231,91.125 172.299,88.1 C172.367,85.075 172.367,80.125 172.299,77.1 C172.231,74.075 172.175,76.55 172.175,82.6 M83.029,73.229 C82.881,73.815 82.838,74.372 82.932,74.466 C83.027,74.56 83.224,74.158 83.371,73.571 C83.519,72.985 83.562,72.428 83.468,72.334 C83.373,72.24 83.176,72.642 83.029,73.229 M141.774,84.4 C141.775,90.12 141.831,92.404 141.899,89.476 C141.968,86.548 141.967,81.868 141.899,79.076 C141.83,76.284 141.774,78.68 141.774,84.4 M161.774,84.4 C161.775,90.12 161.831,92.404 161.899,89.476 C161.968,86.548 161.967,81.868 161.899,79.076 C161.83,76.284 161.774,78.68 161.774,84.4 M93.693,76.2 C93.693,76.97 93.775,77.285 93.876,76.9 C93.976,76.515 93.976,75.885 93.876,75.5 C93.775,75.115 93.693,75.43 93.693,76.2 M117.293,76.2 C117.293,76.97 117.375,77.285 117.476,76.9 C117.576,76.515 117.576,75.885 117.476,75.5 C117.375,75.115 117.293,75.43 117.293,76.2 M152.093,84.867 C152.023,92.475 151.878,94.983 151.5,95.135 C151.108,95.293 151.111,95.344 151.513,95.368 C152.369,95.421 152.419,94.737 152.3,84.592 L152.185,74.8 L152.093,84.867 M82.537,78.8 C82.539,80.56 82.609,81.23 82.693,80.289 C82.778,79.349 82.777,77.909 82.691,77.089 C82.605,76.27 82.536,77.04 82.537,78.8 M50.667,76.467 C50.52,76.613 50.4,80.828 50.4,85.833 C50.4,91.649 50.252,95.007 49.99,95.137 C49.764,95.249 49.809,95.294 50.09,95.237 C50.482,95.158 51.356,76.194 50.967,76.2 C50.948,76.2 50.813,76.32 50.667,76.467 M55.28,76.498 C57.194,76.571 60.434,76.571 62.48,76.498 C64.526,76.426 62.96,76.366 59,76.365 C55.04,76.365 53.366,76.424 55.28,76.498 M66.72,76.68 C67.057,77.017 67.227,79.673 67.291,85.58 L67.382,94 L67.504,86 C67.631,77.702 67.51,76.2 66.712,76.2 C66.353,76.2 66.355,76.315 66.72,76.68 M176.537,79.2 C176.539,80.96 176.609,81.63 176.693,80.689 C176.778,79.749 176.777,78.309 176.691,77.489 C176.605,76.67 176.536,77.44 176.537,79.2 M269.781,77.9 L268.2,79.6 L269.9,78.019 C270.835,77.149 271.6,76.384 271.6,76.319 C271.6,76.016 271.252,76.319 269.781,77.9 M106.52,78.6 C106.52,79.81 106.595,80.305 106.687,79.7 C106.778,79.095 106.778,78.105 106.687,77.5 C106.595,76.895 106.52,77.39 106.52,78.6 M326.8,78.4 C327.546,79.17 328.247,79.8 328.357,79.8 C328.467,79.8 327.946,79.17 327.2,78.4 C326.454,77.63 325.753,77 325.643,77 C325.533,77 326.054,77.63 326.8,78.4 M346.215,78.638 C346.867,79.429 347.628,80.419 347.906,80.838 C348.193,81.271 348.166,81.082 347.844,80.4 C347.531,79.74 346.771,78.75 346.153,78.2 L345.03,77.2 L346.215,78.638 M228.834,79.647 C229.365,80.333 229.88,80.823 229.979,80.735 C230.077,80.647 229.643,80.086 229.013,79.488 L227.869,78.4 L228.834,79.647 M117.293,80.6 C117.293,81.37 117.375,81.685 117.476,81.3 C117.576,80.915 117.576,80.285 117.476,79.9 C117.375,79.515 117.293,79.83 117.293,80.6 M285.546,79.83 C286.431,80.184 286.482,80.376 286.328,82.796 C286.237,84.219 286.304,85.162 286.475,84.892 C287.502,83.275 286.605,79.369 285.22,79.425 C284.86,79.44 284.997,79.61 285.546,79.83 M208,81.127 C208,81.721 206.948,81.797 197.505,81.893 C186.542,82.005 185.452,82.212 187.113,83.873 C187.363,84.123 187.431,83.896 187.304,83.23 L187.107,82.2 L197.566,82.2 C208.058,82.2 209.529,81.996 208.249,80.716 C208.112,80.579 208,80.764 208,81.127 M82.856,83.4 C82.856,83.73 83.011,84.36 83.2,84.8 C83.417,85.304 83.544,85.378 83.544,85 C83.544,84.67 83.389,84.04 83.2,83.6 C82.983,83.096 82.856,83.022 82.856,83.4 M240.854,83.667 C240.825,84.144 240.696,84.864 240.57,85.267 C240.352,85.961 240.364,85.962 240.796,85.288 C241.047,84.897 241.175,84.177 241.081,83.688 C240.909,82.801 240.909,82.801 240.854,83.667 M277.301,84.8 C277.305,85.68 277.387,85.993 277.483,85.495 C277.579,84.998 277.575,84.278 277.475,83.895 C277.375,83.513 277.296,83.92 277.301,84.8 M348.901,85.2 C348.905,86.08 348.987,86.393 349.083,85.895 C349.179,85.398 349.175,84.678 349.075,84.295 C348.975,83.913 348.896,84.32 348.901,85.2 M338.297,85.573 C338.414,86.185 338.181,86.819 337.639,87.361 C337.178,87.822 336.97,88.2 337.177,88.2 C338.179,88.2 339.269,85.337 338.458,84.836 C338.27,84.719 338.197,85.051 338.297,85.573 M284.4,87.06 C283.63,87.735 283.362,88.105 283.804,87.881 C284.535,87.511 286.347,85.778 285.962,85.816 C285.873,85.825 285.17,86.385 284.4,87.06 M203,87 C201.981,87.438 203.032,87.438 204.4,87 C205.204,86.743 205.243,86.677 204.6,86.668 C204.16,86.662 203.44,86.811 203,87 M221.5,87.289 C222.215,87.378 223.385,87.378 224.1,87.289 C224.815,87.201 224.23,87.128 222.8,87.128 C221.37,87.128 220.785,87.201 221.5,87.289 M260.582,87.287 L262.768,87.439 L262.908,90.519 L263.048,93.6 L263.024,90.4 L263,87.2 L260.698,87.167 L258.396,87.134 L260.582,87.287 M324.629,88.029 C324.481,88.615 324.438,89.172 324.532,89.266 C324.627,89.36 324.824,88.958 324.971,88.371 C325.119,87.785 325.162,87.228 325.068,87.134 C324.973,87.04 324.776,87.442 324.629,88.029 M194.9,88.091 C195.725,88.178 197.075,88.178 197.9,88.091 C198.725,88.005 198.05,87.934 196.4,87.934 C194.75,87.934 194.075,88.005 194.9,88.091 M210.229,88.829 C210.081,89.415 210.038,89.972 210.132,90.066 C210.227,90.16 210.424,89.758 210.571,89.171 C210.719,88.585 210.762,88.028 210.668,87.934 C210.573,87.84 210.376,88.242 210.229,88.829 M280.5,88.476 C280.885,88.576 281.515,88.576 281.9,88.476 C282.285,88.375 281.97,88.293 281.2,88.293 C280.43,88.293 280.115,88.375 280.5,88.476 M296.92,90.2 C296.92,91.41 296.995,91.905 297.087,91.3 C297.178,90.695 297.178,89.705 297.087,89.1 C296.995,88.495 296.92,88.99 296.92,90.2 M333.305,88.487 C333.914,88.579 334.814,88.577 335.305,88.482 C335.797,88.387 335.3,88.311 334.2,88.314 C333.1,88.317 332.697,88.395 333.305,88.487 M112.378,91.3 L111,92.8 L112.5,91.422 C113.896,90.138 114.184,89.8 113.878,89.8 C113.812,89.8 113.137,90.475 112.378,91.3 M180.8,91.2 C181.546,91.97 182.247,92.6 182.357,92.6 C182.467,92.6 181.946,91.97 181.2,91.2 C180.454,90.43 179.753,89.8 179.643,89.8 C179.533,89.8 180.054,90.43 180.8,91.2 M209.459,91.898 C209.309,92.469 209.466,93.014 209.89,93.398 C210.486,93.936 210.508,93.934 210.095,93.379 C209.841,93.038 209.737,92.363 209.863,91.879 C209.99,91.396 210.003,91 209.893,91 C209.783,91 209.588,91.404 209.459,91.898 M247.117,91.6 C247.345,92.04 248.132,92.94 248.866,93.599 L250.2,94.798 L248.801,93.199 C248.032,92.32 247.245,91.42 247.052,91.2 C246.86,90.98 246.889,91.16 247.117,91.6 M345.775,92.3 L344.6,93.6 L345.9,92.425 C346.615,91.779 347.2,91.194 347.2,91.125 C347.2,90.816 346.87,91.088 345.775,92.3 M183.021,93.034 C183.295,93.477 185.616,94.718 185.809,94.524 C185.884,94.45 185.235,94 184.368,93.525 C183.5,93.05 182.894,92.829 183.021,93.034 M233.2,93.8 C232.43,94.222 231.944,94.574 232.12,94.583 C232.544,94.605 234.8,93.432 234.8,93.19 C234.8,92.928 234.777,92.937 233.2,93.8 M283.8,94.431 C282.92,94.957 282.38,95.389 282.6,95.392 C283.081,95.398 285.6,93.898 285.6,93.606 C285.6,93.344 285.683,93.307 283.8,94.431 M202.6,95 C202.096,95.217 202.022,95.344 202.4,95.344 C202.73,95.344 203.36,95.189 203.8,95 C204.304,94.783 204.378,94.656 204,94.656 C203.67,94.656 203.04,94.811 202.6,95 M98.311,96.093 C99.251,96.178 100.691,96.177 101.511,96.091 C102.33,96.005 101.56,95.936 99.8,95.937 C98.04,95.939 97.37,96.009 98.311,96.093 M192.9,96.094 C193.945,96.176 195.655,96.176 196.7,96.094 C197.745,96.012 196.89,95.944 194.8,95.944 C192.71,95.944 191.855,96.012 192.9,96.094 M220.713,96.095 C221.876,96.176 223.676,96.176 224.713,96.093 C225.751,96.011 224.8,95.945 222.6,95.946 C220.4,95.947 219.551,96.014 220.713,96.095 M255.3,96.091 C256.125,96.178 257.475,96.178 258.3,96.091 C259.125,96.005 258.45,95.934 256.8,95.934 C255.15,95.934 254.475,96.005 255.3,96.091 M276.3,96.089 C277.015,96.178 278.185,96.178 278.9,96.089 C279.615,96.001 279.03,95.928 277.6,95.928 C276.17,95.928 275.585,96.001 276.3,96.089 M332.512,96.095 C333.564,96.177 335.184,96.176 336.112,96.092 C337.04,96.008 336.18,95.941 334.2,95.942 C332.22,95.943 331.46,96.012 332.512,96.095" id="path2" fill="#858585"></path>
            <path d="M221.6,49.571 C213.456,51.829 208.867,58.102 210.387,64.9 C211.514,69.945 214.922,73.021 222.869,76.17 C231.342,79.527 233.067,84.49 226.567,86.807 C225.705,87.114 225.322,87.373 225.716,87.382 C226.993,87.414 229.568,85.822 230.192,84.616 C231.98,81.158 229.227,77.784 223,75.799 C215.262,73.334 210.725,68.58 210.68,62.893 C210.61,53.931 217.713,48.934 229.732,49.49 C232.189,49.604 233.75,49.558 233.2,49.388 C231.607,48.897 223.575,49.023 221.6,49.571 M253.2,49.437 C252.65,49.631 250.76,50.203 249,50.709 L245.8,51.628 L245.6,56.814 L245.4,62 L243.285,62.121 L241.171,62.243 L241.285,65.921 L241.4,69.6 L243.4,69.8 L245.4,70 L245.618,79.2 C245.943,92.959 247.993,95.908 257.108,95.733 L260.6,95.666 L256.6,95.418 C247.729,94.869 246.375,92.74 246.028,78.8 L245.8,69.6 L243.8,69.4 L241.8,69.2 L241.684,65.921 L241.568,62.643 L243.684,62.521 L245.8,62.4 L245.912,57.308 C246.041,51.443 245.654,51.977 250.762,50.62 C252.611,50.129 254.366,49.634 254.662,49.521 C255.098,49.354 255.2,50.432 255.2,55.184 C255.2,62.736 255.122,62.6 259.43,62.6 L262.832,62.6 L262.716,65.9 L262.6,69.2 L259.104,69.316 C254.824,69.457 255.038,68.975 255.287,77.913 C255.527,86.503 256.219,87.8 260.563,87.8 L262.365,87.8 L262.503,90.7 L262.641,93.6 L262.721,90.5 L262.8,87.4 L260.569,87.4 C256.222,87.4 255.418,85.362 255.676,75 L255.8,70 L259.4,69.8 L263,69.6 L263,66 L263,62.4 L259.819,62.282 C255.443,62.119 255.6,62.384 255.6,55.151 C255.6,48.419 255.663,48.57 253.2,49.437 M40.5,49.665 C39.652,50.007 39.783,94.831 40.633,95.157 C41.556,95.511 49.314,95.443 49.892,95.075 C50.253,94.846 50.413,92.314 50.492,85.581 L50.6,76.4 L58.771,76.291 C65.026,76.208 67.027,76.302 67.302,76.691 C67.573,77.075 67.621,77.053 67.497,76.6 C67.358,76.09 66.042,76 58.767,76 L50.2,76 L50.093,85.3 L49.985,94.6 L45.193,94.6 L40.4,94.6 L40.4,72.48 C40.4,55.809 40.518,50.242 40.88,49.88 C41.386,49.374 41.317,49.335 40.5,49.665 M49.535,49.922 C49.826,50.273 50.021,53.393 50.092,58.831 L50.2,67.2 L58.9,67.308 C66.998,67.408 67.6,67.367 67.594,66.708 C67.589,66.195 67.499,66.14 67.265,66.509 C67.017,66.899 65.041,66.992 58.771,66.909 L50.6,66.8 L50.492,58.34 C50.398,50.97 50.301,49.848 49.736,49.631 C49.227,49.435 49.184,49.498 49.535,49.922 M76.7,49.856 C77.088,50.247 77.2,55.319 77.2,72.48 L77.2,94.6 L72.68,94.6 C69.613,94.6 67.99,94.439 67.631,94.1 C67.195,93.687 67.183,93.757 67.565,94.5 C68.126,95.591 76.241,95.902 77.271,94.872 C78.191,93.952 77.824,49.971 76.893,49.617 C76.337,49.405 76.299,49.452 76.7,49.856 M235.913,50.388 C238.433,51.175 238.826,51.607 238.324,53.045 C238.095,53.703 238.005,54.339 238.125,54.458 C238.244,54.577 238.532,53.987 238.764,53.145 C239.083,51.991 239.065,51.503 238.693,51.16 C238.097,50.61 235.727,49.79 234.84,49.827 C234.488,49.841 234.971,50.094 235.913,50.388 M237.429,56.029 C237.281,56.615 237.251,57.184 237.361,57.294 C237.471,57.404 237.681,57.015 237.829,56.429 C237.976,55.842 238.006,55.273 237.896,55.163 C237.786,55.053 237.576,55.442 237.429,56.029 M223.8,57.574 C217.232,60.01 219.405,64.733 228.8,68.438 C237.404,71.831 240.373,75.159 240.391,81.429 C240.407,87.021 237.967,91.006 233.071,93.381 C231.712,94.04 230.831,94.584 231.113,94.59 C233.123,94.63 238.15,90.648 239.537,87.917 C243.658,79.803 239.814,72.324 229.4,68.197 C222.517,65.469 220.8,64.178 220.8,61.729 C220.8,57.75 227.622,56.208 234.295,58.678 C236.498,59.494 237.208,59.395 237.188,58.276 C237.177,57.646 237.149,57.646 236.785,58.269 C236.424,58.889 236.231,58.88 234.141,58.145 C231.112,57.081 225.904,56.793 223.8,57.574 M100.8,61.807 C109.787,62.48 114.953,66.639 116.631,74.553 C117.192,77.199 117.192,77.199 117.011,75.069 C116.335,67.103 109.058,61.277 100.016,61.462 L97,61.523 L100.8,61.807 M141.4,61.755 C144.962,62.131 146.827,63.036 148.802,65.347 L150.377,67.189 L152.088,65.518 C153.03,64.598 154.79,63.387 156,62.827 C157.268,62.24 157.852,61.806 157.378,61.804 C156.387,61.799 152.916,63.941 151.787,65.254 C150.702,66.516 150.45,66.464 148.709,64.614 C146.553,62.323 145.072,61.688 141.6,61.565 L138.6,61.459 L141.4,61.755 M159.5,61.689 C160.215,61.778 161.385,61.778 162.1,61.689 C162.815,61.601 162.23,61.528 160.8,61.528 C159.37,61.528 158.785,61.601 159.5,61.689 M188.468,62.026 C183.099,63.471 177.962,69.058 177.378,74.087 C177.205,75.576 177.211,75.571 177.738,73.8 C179.972,66.288 184.784,62.512 193,61.823 L196.6,61.521 L193.6,61.487 C191.95,61.468 189.64,61.711 188.468,62.026 M280.1,61.694 C281.145,61.776 282.855,61.776 283.9,61.694 C284.945,61.612 284.09,61.544 282,61.544 C279.91,61.544 279.055,61.612 280.1,61.694 M318.2,61.984 C317.211,62.335 315.821,63.4 314.563,64.772 C312.312,67.224 312.003,67.231 311.994,64.833 C311.984,62.23 311.844,62.156 307.169,62.285 L303.003,62.4 L303.143,78.6 C303.244,90.199 303.414,94.883 303.742,95.094 C304.57,95.625 312.66,95.451 313.124,94.891 C313.386,94.576 313.594,90.742 313.673,84.791 C313.835,72.57 314.39,71.486 320.698,71.081 L323.624,70.893 L323.512,66.247 L323.4,61.6 L321.6,61.508 C320.61,61.458 319.08,61.672 318.2,61.984 M333.172,61.947 C323.312,64.605 321.284,75.674 329.8,80.347 C330.46,80.709 332.345,81.551 333.989,82.217 C335.633,82.883 337.413,83.827 337.944,84.314 C338.577,84.895 338.849,84.993 338.733,84.6 C338.636,84.27 337.576,83.522 336.378,82.937 C335.18,82.352 332.767,81.182 331.015,80.337 C319.78,74.916 324.059,62.885 337.6,61.822 L341.4,61.523 L338.2,61.489 C336.44,61.47 334.177,61.676 333.172,61.947 M93.163,62.556 C88.195,64.5 84.981,68.043 83.369,73.353 C82.773,75.319 82.636,82.235 83.167,83.595 C83.337,84.032 83.392,82.475 83.288,80.134 C82.873,70.809 86.991,64.626 95.104,62.393 C96.323,62.058 96.643,61.865 96,61.854 C95.45,61.845 94.173,62.161 93.163,62.556 M135.2,62.83 C134.21,63.392 132.988,64.289 132.484,64.825 C131.276,66.11 130.8,66.056 130.8,64.633 C130.8,62.264 130.678,62.2 126.2,62.2 C121.999,62.2 121.541,62.374 121.625,63.933 C121.639,64.19 121.816,63.988 122.018,63.485 C122.37,62.608 122.545,62.576 126.293,62.685 L130.2,62.8 L130.327,64.4 C130.521,66.849 130.992,66.971 132.928,65.071 C133.876,64.14 135.54,63.032 136.626,62.608 C137.712,62.184 138.24,61.831 137.8,61.824 C137.36,61.816 136.19,62.269 135.2,62.83 M165.4,62.751 C167.536,63.758 168.613,64.763 169.957,67 C170.838,68.468 171.122,68.377 170.353,66.874 C169.591,65.386 167.067,62.968 165.651,62.37 C163.437,61.434 163.24,61.733 165.4,62.751 M198.846,62.647 C201.645,63.624 204.084,65.677 205.615,68.347 C206.263,69.476 206.794,70.21 206.796,69.978 C206.819,67.462 200.077,61.699 197.267,61.832 C196.9,61.849 197.611,62.216 198.846,62.647 M275.4,61.992 C275.18,62.063 274.01,62.425 272.8,62.797 C269.272,63.88 269.166,64.074 270.156,67.609 C270.735,69.676 271.18,70.591 271.597,70.57 C272.452,70.528 275.527,69.063 274.8,69.044 C274.47,69.035 273.75,69.286 273.2,69.6 C271.605,70.512 271.343,70.335 270.653,67.874 C269.584,64.067 269.946,63.689 275.907,62.384 C277.392,62.059 277.777,61.879 277,61.873 C276.34,61.867 275.62,61.921 275.4,61.992 M287.4,62.361 C291.929,63.797 294.326,66.033 295.59,70 C296.011,71.32 296.365,72.092 296.378,71.715 C296.51,67.666 290.463,61.655 286.429,61.827 C286.083,61.841 286.52,62.082 287.4,62.361 M323.113,66.254 L323.226,70.508 L320.469,70.664 C318.21,70.792 317.447,71.021 316.248,71.937 C313.429,74.087 313.422,74.116 313.2,84.781 L313,94.4 L308.3,94.513 L303.6,94.625 L303.6,79.863 C303.6,71.743 303.486,64.531 303.347,63.835 L303.094,62.571 L307.247,62.685 L311.4,62.8 L311.519,65.3 C311.662,68.305 312.304,68.57 313.78,66.232 C315.554,63.421 318.458,61.779 321.4,61.922 L323,62 L323.113,66.254 M343.792,62.412 C346.936,63.216 346.948,63.235 346.165,66.44 C345.305,69.956 345.396,69.887 342.8,68.988 C338.142,67.375 334.056,68.417 334.013,71.23 C333.993,72.544 335.556,73.679 339.646,75.318 C344.359,77.208 346.076,78.493 347.38,81.111 C347.941,82.236 348.4,82.848 348.4,82.471 C348.4,80.034 345.094,77.122 339.901,74.982 C334.556,72.78 333.572,71.711 335.125,69.793 C336.39,68.232 339.285,68.294 344.661,70 C345.427,70.243 345.591,70.036 346.148,68.118 C347.539,63.335 347.034,62.33 343.053,61.956 C341.673,61.826 341.796,61.901 343.792,62.412 M122.095,79.657 C122.01,93.257 122.069,94.941 122.633,95.157 C123.691,95.563 130.8,95.428 131.626,94.986 C132.362,94.592 132.4,94.04 132.4,83.803 L132.4,73.034 L133.938,71.417 C136.544,68.678 140.153,69.462 141.45,73.049 C141.777,73.953 141.948,74.135 141.967,73.6 C142.095,69.92 136.988,68.148 134.009,70.839 C131.782,72.851 131.605,73.888 131.602,84.9 L131.6,94.6 L127.005,94.6 L122.41,94.6 L122.3,79.5 L122.19,64.4 L122.095,79.657 M192.1,68.076 C192.485,68.176 193.115,68.176 193.5,68.076 C193.885,67.975 193.57,67.893 192.8,67.893 C192.03,67.893 191.715,67.975 192.1,68.076 M97.588,69.1 C95.936,69.934 93.995,72.133 94.004,73.159 C94.006,73.402 94.467,72.834 95.028,71.898 C98.208,66.592 104.369,68.298 106.229,75 C106.504,75.99 106.745,76.418 106.764,75.95 C106.881,73.178 104.172,69.308 101.618,68.598 C99.696,68.064 99.619,68.074 97.588,69.1 M189.576,68.857 C188.568,69.483 186.8,71.729 186.8,72.384 C186.8,72.568 187.209,72.111 187.71,71.369 C188.21,70.626 189.226,69.61 189.969,69.11 C191.488,68.085 191.159,67.874 189.576,68.857 M195.504,68.998 C197.082,69.96 198.396,72.004 198.399,73.5 L198.4,74.6 L192.628,74.6 C186.96,74.6 186.853,74.584 186.682,73.7 C186.528,72.898 186.503,72.915 186.454,73.857 C186.381,75.285 186.841,75.4 192.6,75.4 C195.314,75.4 197.819,75.291 198.167,75.157 C200.228,74.367 197.164,68.194 194.714,68.201 C194.431,68.202 194.787,68.561 195.504,68.998 M276.4,68.6 C274.996,69.05 276.463,69.065 278.6,68.623 L280.2,68.292 L278.8,68.286 C278.03,68.283 276.95,68.424 276.4,68.6 M282.536,68.774 C286.991,69.972 287.523,72.634 283.4,73.096 C279.476,73.536 279.218,73.799 282.898,73.609 C286.351,73.431 286.8,73.273 286.8,72.23 C286.8,70.489 283.864,68.175 281.72,68.227 C280.868,68.248 281.063,68.379 282.536,68.774 M171.015,69.4 C171.199,69.95 171.415,75.845 171.496,82.5 L171.643,94.6 L167.028,94.6 L162.414,94.6 L162.3,84.5 L162.186,74.4 L162.093,84.657 C162.011,93.697 162.075,94.943 162.633,95.157 C163.591,95.525 170.924,95.436 171.534,95.049 C172.608,94.368 172.085,69.681 170.976,68.668 C170.814,68.521 170.832,68.85 171.015,69.4 M154.519,70.184 C151.956,71.747 151.814,72.443 151.676,84.1 L151.552,94.6 L146.983,94.6 L142.414,94.6 L142.296,84.5 L142.179,74.4 L142.189,84.8 L142.2,95.2 L146.2,95.317 C148.4,95.381 150.605,95.333 151.1,95.209 L152,94.985 L152.01,85.292 C152.021,74.124 152.206,72.907 154.173,71.1 C156.74,68.743 160.231,69.677 161.45,73.049 C161.863,74.19 161.944,74.253 161.97,73.453 C162.063,70.541 157.335,68.467 154.519,70.184 M207.044,71.6 C207.373,73.071 207.602,73.39 207.594,72.367 C207.591,71.945 207.405,71.33 207.182,71 C206.885,70.562 206.848,70.724 207.044,71.6 M296.56,83.513 L296.6,94.626 L292.4,94.513 C288.431,94.406 288.193,94.352 288.076,93.529 C287.846,91.912 287.013,91.673 285.639,92.829 C278.792,98.59 267.583,94.506 267.446,86.201 C267.345,80.089 270.074,76.722 276.722,74.754 C278.415,74.253 279.44,73.835 279,73.826 C274.827,73.737 269.095,77.695 267.596,81.702 C263.836,91.751 274.962,99.787 284.601,93.983 C287.335,92.336 287.6,92.301 287.6,93.586 C287.6,94.151 287.93,94.748 288.374,94.986 C289.255,95.458 296.677,95.557 296.897,95.1 C296.977,94.935 296.925,89.76 296.781,83.6 L296.521,72.4 L296.56,83.513 M207.866,76.012 C207.987,77.559 207.901,79.494 207.675,80.312 C207.449,81.131 207.409,81.8 207.586,81.8 C208.385,81.8 208.675,76.251 207.983,74.2 C207.771,73.573 207.727,74.248 207.866,76.012 M93.452,74.7 C91.405,82.341 96.216,90.443 101.722,88.626 C103.086,88.176 106,85.433 106,84.599 C106,83.888 105.634,84.174 105.016,85.368 C102.902,89.458 97.392,89.31 94.916,85.098 C93.866,83.312 93.8,82.923 93.8,78.5 C93.8,73.372 93.802,73.394 93.452,74.7 M176.942,79.2 C176.941,81.18 177.008,82.04 177.092,81.112 C177.176,80.184 177.177,78.564 177.095,77.512 C177.012,76.46 176.943,77.22 176.942,79.2 M106.893,78.6 C106.893,79.37 106.975,79.685 107.076,79.3 C107.176,78.915 107.176,78.285 107.076,77.9 C106.975,77.515 106.893,77.83 106.893,78.6 M116.813,80.673 C115.426,90.162 110.374,94.702 100.4,95.424 L96.2,95.728 L100.6,95.627 C110.344,95.403 116.316,89.804 117.373,79.9 C117.758,76.296 117.376,76.823 116.813,80.673 M281.4,79.82 C280.861,80.065 281.254,80.105 282.6,79.941 C283.7,79.807 284.675,79.631 284.767,79.549 C285.117,79.236 282.161,79.474 281.4,79.82 M286.32,79.88 C286.584,80.144 286.83,81.269 286.867,82.38 C286.928,84.213 286.949,84.255 287.095,82.838 C287.292,80.924 286.945,79.4 286.312,79.4 C285.953,79.4 285.955,79.515 286.32,79.88 M278.458,81.3 C276.088,83.287 276.439,87.36 279.085,88.566 C281.356,89.601 284.812,88.442 286.136,86.201 C287.12,84.535 286.941,84.271 285.892,85.841 C282.573,90.809 275.25,88.119 277.664,82.819 C277.92,82.258 278.235,81.796 278.364,81.791 C278.809,81.774 280.6,80.218 280.185,80.209 C279.957,80.204 279.179,80.695 278.458,81.3 M106.449,81.2 C106.416,81.64 106.296,82.45 106.183,83 L105.977,84 L106.406,83.019 C106.642,82.479 106.761,81.669 106.672,81.219 C106.513,80.421 106.507,80.421 106.449,81.2 M186.4,82.786 C186.4,84.76 190.554,88.22 192.884,88.187 C193.41,88.179 192.863,87.852 191.6,87.418 C188.992,86.521 186.639,84.152 186.917,82.701 C187.012,82.206 186.934,81.8 186.745,81.8 C186.555,81.8 186.4,82.244 186.4,82.786 M177.211,83.743 C177.162,88.07 184.807,95.441 189.291,95.39 C189.791,95.384 189.004,94.972 187.542,94.474 C182.564,92.777 179.84,90.123 178.111,85.287 C177.595,83.845 177.217,83.196 177.211,83.743 M348.514,85.2 C348.517,86.3 348.595,86.703 348.687,86.095 C348.779,85.486 348.777,84.586 348.682,84.095 C348.587,83.603 348.511,84.1 348.514,85.2 M83.623,84.913 C83.475,88.215 90.266,94.475 94.8,95.216 C95.766,95.374 95.477,95.185 93.867,94.606 C89.416,93.007 86.326,90.294 84.578,86.449 C84.065,85.322 83.636,84.631 83.623,84.913 M211.692,85.122 C211.218,85.735 209.867,91.4 210.131,91.665 C210.241,91.774 210.64,90.455 211.018,88.732 C211.858,84.898 211.859,84.896 212.859,85.431 C213.304,85.67 213.744,85.789 213.836,85.697 C213.928,85.605 213.566,85.331 213.032,85.087 C212.305,84.756 211.968,84.765 211.692,85.122 M338.4,86.719 C337.378,88.842 333.269,89.135 328.728,87.409 C326.104,86.412 325.198,86.384 325.206,87.3 C325.211,87.85 325.287,87.883 325.559,87.453 C325.846,87 326.348,87.06 328.453,87.797 C334.112,89.779 340.171,88.674 339.138,85.849 C339.062,85.643 338.73,86.034 338.4,86.719 M214.8,86.2 C215.13,86.413 215.67,86.588 216,86.588 C216.533,86.588 216.533,86.545 216,86.2 C215.67,85.987 215.13,85.812 214.8,85.812 C214.267,85.812 214.267,85.855 214.8,86.2 M217.4,87 C217.84,87.189 218.74,87.335 219.4,87.325 L220.6,87.305 L219.4,87 C218.74,86.832 217.84,86.686 217.4,86.675 L216.6,86.656 L217.4,87 M201.4,87.608 C199.785,87.948 199.392,88.126 200.2,88.154 C200.86,88.177 202.1,88.001 202.955,87.764 C204.182,87.423 204.582,87.445 204.849,87.866 C205.109,88.275 205.189,88.237 205.194,87.7 C205.201,86.899 204.812,86.89 201.4,87.608 M222.105,87.687 C222.714,87.779 223.614,87.777 224.105,87.682 C224.597,87.587 224.1,87.511 223,87.514 C221.9,87.517 221.497,87.595 222.105,87.687 M347.665,88.772 C346.641,91.603 344.395,93.435 340.222,94.843 C338.63,95.381 338.626,95.387 339.995,95.186 C343.67,94.648 349.02,89.86 348.314,87.742 C348.241,87.523 347.949,87.986 347.665,88.772 M195.1,88.489 C195.815,88.578 196.985,88.578 197.7,88.489 C198.415,88.401 197.83,88.328 196.4,88.328 C194.97,88.328 194.385,88.401 195.1,88.489 M324.261,90.609 C323.208,94.396 326.173,95.87 334.573,95.736 L338.6,95.671 L333.6,95.392 C329.318,95.152 324,93.962 324,93.244 C324,93.19 324.281,92.2 324.624,91.044 C324.967,89.889 325.184,88.751 325.105,88.515 C325.027,88.28 324.647,89.222 324.261,90.609 M205.413,90 C205.516,90.88 205.711,92.005 205.846,92.5 C206.05,93.242 205.858,93.502 204.747,93.984 C203.754,94.415 203.616,94.573 204.224,94.584 C206.183,94.622 206.561,93.788 205.863,90.969 C205.461,89.347 205.296,88.99 205.413,90 M209.679,92.651 C210.213,94.293 216.889,95.829 223.083,95.734 L227.4,95.668 L222,95.379 C216.186,95.068 212.481,94.272 210.65,92.94 C209.92,92.408 209.566,92.303 209.679,92.651 M262.583,94.228 C262.437,94.463 261.932,94.812 261.459,95.003 L260.6,95.349 L261.486,95.375 C261.981,95.389 262.561,95.047 262.8,94.6 C263.24,93.777 263.056,93.462 262.583,94.228 M200.6,95 L199.4,95.305 L200.6,95.325 C201.26,95.335 202.16,95.189 202.6,95 L203.4,94.656 L202.6,94.675 C202.16,94.686 201.26,94.832 200.6,95 M228.4,95 L227.4,95.32 L228.4,95.354 C228.95,95.373 229.67,95.213 230,95 C230.764,94.506 229.942,94.506 228.4,95 M192.5,95.696 C193.765,95.775 195.835,95.775 197.1,95.696 C198.365,95.616 197.33,95.551 194.8,95.551 C192.27,95.551 191.235,95.616 192.5,95.696" id="path3" fill="#858585"></path>
            <path d="M226.1,48.491 C226.925,48.578 228.275,48.578 229.1,48.491 C229.925,48.405 229.25,48.334 227.6,48.334 C225.95,48.334 225.275,48.405 226.1,48.491 M255.5,48.599 C255.854,48.996 256,50.945 256,55.256 C256,58.609 256.135,61.437 256.3,61.539 C257.005,61.977 256.391,49.089 255.681,48.553 C255.104,48.117 255.077,48.124 255.5,48.599 M231.3,48.876 C231.685,48.976 232.315,48.976 232.7,48.876 C233.085,48.775 232.77,48.693 232,48.693 C231.23,48.693 230.915,48.775 231.3,48.876 M39.862,49.3 C39.76,49.465 42.162,49.6 45.2,49.6 C48.238,49.6 50.64,49.465 50.538,49.3 C50.436,49.135 48.034,49 45.2,49 C42.366,49 39.964,49.135 39.862,49.3 M67.043,49.633 C66.909,49.981 66.84,53.986 66.888,58.533 L66.976,66.8 L67.188,58.2 L67.4,49.6 L72.6,49.6 L77.8,49.6 L77.8,72.4 L77.8,95.2 L72.6,95.2 L67.4,95.2 L67.189,86 L66.977,76.8 L66.889,86.057 C66.811,94.182 66.877,95.344 67.433,95.557 C68.646,96.023 77.416,95.824 77.92,95.32 C78.429,94.811 78.656,50.934 78.157,49.633 C77.953,49.1 77.077,49 72.6,49 C68.123,49 67.247,49.1 67.043,49.633 M248.6,50.2 C248.096,50.417 248.022,50.544 248.4,50.544 C248.73,50.544 249.36,50.389 249.8,50.2 C250.304,49.983 250.378,49.856 250,49.856 C249.67,49.856 249.04,50.011 248.6,50.2 M239.102,51.6 C239.207,52.15 239.362,52.6 239.447,52.6 C239.531,52.6 239.6,52.15 239.6,51.6 C239.6,51.05 239.445,50.6 239.255,50.6 C239.066,50.6 238.997,51.05 239.102,51.6 M245.776,51.222 C245.012,51.834 245.013,51.838 245.8,51.476 C246.24,51.274 246.87,51.008 247.2,50.886 C247.718,50.693 247.715,50.659 247.176,50.632 C246.834,50.614 246.204,50.88 245.776,51.222 M213.375,53.5 L212.2,54.8 L213.5,53.625 C214.215,52.979 214.8,52.394 214.8,52.325 C214.8,52.016 214.47,52.288 213.375,53.5 M229.105,58.083 C229.602,58.179 230.322,58.175 230.705,58.075 C231.087,57.975 230.68,57.896 229.8,57.901 C228.92,57.905 228.607,57.987 229.105,58.083 M237.2,58.933 C237.2,59.19 236.795,59.421 236.3,59.446 C235.559,59.485 235.531,59.527 236.142,59.684 C236.94,59.889 237.925,59.191 237.473,58.74 C237.323,58.59 237.2,58.677 237.2,58.933 M209.728,62.6 C209.728,64.03 209.801,64.615 209.889,63.9 C209.978,63.185 209.978,62.015 209.889,61.3 C209.801,60.585 209.728,61.17 209.728,62.6 M144.242,61.568 C145.146,61.85 146.091,62.209 146.342,62.364 C146.594,62.52 146.8,62.537 146.8,62.403 C146.8,62.044 144.143,60.996 143.313,61.027 C142.921,61.041 143.339,61.285 144.242,61.568 M285.8,61.4 C287.492,61.831 288.944,61.831 287.6,61.4 C287.05,61.224 286.15,61.083 285.6,61.087 C284.702,61.094 284.722,61.126 285.8,61.4 M121.68,61.88 C121.356,62.204 121.226,63.735 121.279,66.58 L121.358,70.8 L121.579,66.4 L121.8,62 L126,61.778 L130.2,61.557 L126.18,61.478 C123.491,61.426 122.001,61.559 121.68,61.88 M242.305,61.683 C242.802,61.779 243.522,61.775 243.905,61.675 C244.287,61.575 243.88,61.496 243,61.501 C242.12,61.505 241.807,61.587 242.305,61.683 M258.5,61.691 C259.325,61.778 260.675,61.778 261.5,61.691 C262.325,61.605 261.65,61.534 260,61.534 C258.35,61.534 257.675,61.605 258.5,61.691 M307.361,61.779 C311.24,61.976 311.756,62.088 312.033,62.8 C312.334,63.574 312.345,63.572 312.372,62.743 C312.411,61.553 311.722,61.389 307.067,61.479 L303,61.558 L307.361,61.779 M302.493,78.22 C302.423,90.72 302.519,94.959 302.88,95.32 C303.384,95.824 312.154,96.023 313.367,95.557 C313.921,95.345 313.989,94.235 313.912,86.657 L313.824,78 L313.612,86.6 L313.4,95.2 L308.2,95.2 L303,95.2 L302.793,78.4 L302.587,61.6 L302.493,78.22 M130.8,64 C130.8,64.77 130.944,65.4 131.12,65.4 C131.296,65.4 131.366,64.77 131.276,64 C131.186,63.23 131.042,62.6 130.956,62.6 C130.87,62.6 130.8,63.23 130.8,64 M148.4,64 C149.146,64.77 149.847,65.4 149.957,65.4 C150.067,65.4 149.546,64.77 148.8,64 C148.054,63.23 147.353,62.6 147.243,62.6 C147.133,62.6 147.654,63.23 148.4,64 M152,64.4 C150.885,65.39 150.114,66.193 150.287,66.184 C150.648,66.166 154.593,62.6 154.252,62.6 C154.128,62.6 153.115,63.41 152,64.4 M168.4,64 C169.146,64.77 169.847,65.4 169.957,65.4 C170.067,65.4 169.546,64.77 168.8,64 C168.054,63.23 167.353,62.6 167.243,62.6 C167.133,62.6 167.654,63.23 168.4,64 M201.4,62.879 C202.688,64.194 205.281,66.243 204.4,65.25 C203.85,64.629 202.86,63.75 202.2,63.296 C201.54,62.842 201.18,62.654 201.4,62.879 M314.378,64.1 L313,65.6 L314.5,64.222 C315.896,62.938 316.184,62.6 315.878,62.6 C315.812,62.6 315.137,63.275 314.378,64.1 M323.681,66.276 C323.605,69.903 324.074,71.818 324.496,69.607 C324.6,69.067 324.538,68.715 324.359,68.826 C324.179,68.936 323.972,67.536 323.898,65.713 L323.763,62.4 L323.681,66.276 M183.322,64.029 L182.2,65.058 L183.5,64.154 C184.215,63.657 184.8,63.193 184.8,63.125 C184.8,62.809 184.358,63.08 183.322,64.029 M291.4,63.252 C291.62,63.445 292.52,64.232 293.399,65.001 L294.998,66.4 L293.799,65.066 C293.14,64.332 292.24,63.545 291.8,63.317 C291.36,63.089 291.18,63.06 291.4,63.252 M170.678,67.195 C171.044,67.962 171.414,68.519 171.501,68.432 C171.684,68.249 170.47,65.8 170.196,65.8 C170.095,65.8 170.312,66.428 170.678,67.195 M269.256,66.2 C269.256,66.53 269.411,67.16 269.6,67.6 C269.817,68.104 269.944,68.178 269.944,67.8 C269.944,67.47 269.789,66.84 269.6,66.4 C269.383,65.896 269.256,65.822 269.256,66.2 M295.478,67.995 C295.844,68.762 296.214,69.319 296.301,69.232 C296.484,69.049 295.27,66.6 294.996,66.6 C294.895,66.6 295.112,67.228 295.478,67.995 M346.078,69.05 C345.848,69.958 345.807,70.543 345.988,70.35 C346.361,69.952 346.96,67.4 346.68,67.4 C346.58,67.4 346.309,68.143 346.078,69.05 M192.105,68.887 C192.714,68.979 193.614,68.977 194.105,68.882 C194.597,68.787 194.1,68.711 193,68.714 C191.9,68.717 191.497,68.795 192.105,68.887 M270.236,69.6 C270.566,71.393 271.014,71.643 272.495,70.861 C273.213,70.481 273.44,70.288 273,70.431 C270.991,71.083 270.936,71.068 270.474,69.729 C270.037,68.463 270.026,68.457 270.236,69.6 M97.344,69.769 C96.653,70.19 95.952,70.754 95.787,71.022 C95.621,71.289 96.056,71.087 96.753,70.571 C97.45,70.056 98.871,69.516 99.91,69.371 L101.8,69.107 L100.2,69.055 C99.247,69.024 98.092,69.313 97.344,69.769 M171.668,69.4 C171.688,70.439 172.318,72.146 172.332,71.2 C172.338,70.76 172.189,70.04 172,69.6 C171.789,69.11 171.661,69.032 171.668,69.4 M188.806,70.394 C188.063,71.161 187.532,71.837 187.627,71.898 C187.722,71.958 188.456,71.331 189.259,70.504 C190.061,69.677 190.591,69 190.437,69 C190.283,69 189.549,69.627 188.806,70.394 M283.192,69.446 C286.391,70.723 286.45,72.503 283.3,72.716 L281,72.872 L283.4,72.836 C285.526,72.804 285.814,72.703 285.921,71.953 C286.058,70.993 283.964,68.984 282.869,69.025 C282.435,69.042 282.547,69.189 283.192,69.446 M335.462,69.731 C334.602,70.682 334.618,71.96 335.5,72.651 C336.129,73.145 336.147,73.132 335.669,72.522 C334.898,71.537 335.248,70.097 336.4,69.516 C337.023,69.202 337.16,69.01 336.762,69.006 C336.411,69.003 335.826,69.329 335.462,69.731 M241.119,69.86 C241.273,70.004 242.247,70.186 243.281,70.263 C244.316,70.34 245.036,70.285 244.881,70.14 C244.727,69.996 243.753,69.814 242.719,69.737 C241.684,69.66 240.964,69.715 241.119,69.86 M83.665,70.817 C82.995,72.288 83.123,72.602 83.847,71.265 C84.186,70.64 84.388,70.054 84.296,69.963 C84.205,69.871 83.921,70.256 83.665,70.817 M213.2,71.2 C213.946,71.97 214.647,72.6 214.757,72.6 C214.867,72.6 214.346,71.97 213.6,71.2 C212.854,70.43 212.153,69.8 212.043,69.8 C211.933,69.8 212.454,70.43 213.2,71.2 M257.891,70.089 C258.601,70.177 259.861,70.179 260.691,70.092 C261.521,70.005 260.94,69.933 259.4,69.931 C257.86,69.929 257.181,70 257.891,70.089 M158.433,70.3 C158.525,70.355 159.14,70.85 159.8,71.4 L161,72.4 L160.03,71.3 C159.497,70.695 158.882,70.2 158.664,70.2 C158.445,70.2 158.342,70.245 158.433,70.3 M256.163,76.6 C256.163,80.23 256.223,81.715 256.298,79.9 C256.372,78.085 256.372,75.115 256.298,73.3 C256.223,71.485 256.163,72.97 256.163,76.6 M296.682,72 C296.809,73.1 296.977,74.075 297.056,74.167 C297.355,74.514 297.128,71.564 296.797,70.8 C296.574,70.285 296.533,70.713 296.682,72 M207.668,71.4 C207.688,72.439 208.318,74.146 208.332,73.2 C208.338,72.76 208.189,72.04 208,71.6 C207.789,71.11 207.661,71.032 207.668,71.4 M322.8,71.4 L321.8,71.72 L322.9,71.76 C323.505,71.782 324,71.62 324,71.4 C324,71.18 323.955,71.018 323.9,71.04 C323.845,71.062 323.35,71.224 322.8,71.4 M237.6,72.8 C238.346,73.57 239.047,74.2 239.157,74.2 C239.267,74.2 238.746,73.57 238,72.8 C237.254,72.03 236.553,71.4 236.443,71.4 C236.333,71.4 236.854,72.03 237.6,72.8 M172.397,83.8 L172.2,95.2 L167.232,95.313 C163.54,95.397 162.17,95.294 161.901,94.913 C161.625,94.522 161.578,94.543 161.702,95 C161.936,95.861 171.653,96.1 172.348,95.263 C172.683,94.859 172.782,91.58 172.703,83.551 L172.593,72.4 L172.397,83.8 M187.03,73.267 C186.889,73.634 186.929,74.089 187.119,74.279 C187.695,74.855 198.116,74.49 198.237,73.89 C198.294,73.61 198.249,73.565 198.137,73.79 C197.691,74.689 187.113,74.305 187.4,73.4 C187.706,72.436 187.392,72.323 187.03,73.267 M132.716,73.1 C132.67,73.155 132.535,78.15 132.416,84.2 L132.2,95.2 L127.232,95.313 C123.54,95.397 122.17,95.294 121.901,94.913 C121.625,94.522 121.578,94.543 121.702,95 C121.929,95.835 131.65,96.103 132.323,95.293 C132.695,94.845 133.261,72.999 132.9,73 C132.845,73 132.762,73.045 132.716,73.1 M277.8,73.419 C277.242,73.671 277.485,73.707 278.6,73.538 C279.48,73.404 280.275,73.228 280.367,73.147 C280.71,72.844 278.568,73.071 277.8,73.419 M208.542,78 C208.541,79.98 208.608,80.84 208.692,79.912 C208.776,78.984 208.777,77.364 208.695,76.312 C208.612,75.26 208.543,76.02 208.542,78 M272.7,75.229 C271.149,76.07 271.325,76.361 272.9,75.559 C274.408,74.793 274.675,74.594 274.167,74.616 C273.965,74.625 273.305,74.901 272.7,75.229 M117.737,78.4 C117.739,80.16 117.809,80.83 117.893,79.889 C117.978,78.949 117.977,77.509 117.891,76.689 C117.805,75.87 117.736,76.64 117.737,78.4 M342.4,75.55 C342.4,75.644 343.041,76.099 343.824,76.561 C344.607,77.023 345.136,77.22 344.999,76.998 C344.731,76.564 342.4,75.266 342.4,75.55 M106.134,78.6 C106.134,80.25 106.205,80.925 106.291,80.1 C106.378,79.275 106.378,77.925 106.291,77.1 C106.205,76.275 106.134,76.95 106.134,78.6 M269.578,77.7 L268.2,79.2 L269.7,77.822 C271.096,76.538 271.384,76.2 271.078,76.2 C271.012,76.2 270.337,76.875 269.578,77.7 M82.124,78.8 C82.126,80.12 82.201,80.612 82.29,79.893 C82.379,79.174 82.377,78.094 82.286,77.493 C82.195,76.892 82.122,77.48 82.124,78.8 M93.701,78.8 C93.705,79.68 93.787,79.993 93.883,79.495 C93.979,78.998 93.975,78.278 93.875,77.895 C93.775,77.513 93.696,77.92 93.701,78.8 M176.114,79.2 C176.117,80.3 176.195,80.703 176.287,80.095 C176.379,79.486 176.377,78.586 176.282,78.095 C176.187,77.603 176.111,78.1 176.114,79.2 M325.6,77.525 C325.6,77.594 326.185,78.179 326.9,78.825 L328.2,80 L327.025,78.7 C325.93,77.488 325.6,77.216 325.6,77.525 M296.901,80.8 C296.905,81.68 296.987,81.993 297.083,81.495 C297.179,80.998 297.175,80.278 297.075,79.895 C296.975,79.513 296.896,79.92 296.901,80.8 M241.309,81.8 C241.309,82.79 241.387,83.195 241.482,82.7 C241.578,82.205 241.578,81.395 241.482,80.9 C241.387,80.405 241.309,80.81 241.309,81.8 M286.114,82.8 C286.117,83.9 286.195,84.303 286.287,83.695 C286.379,83.086 286.377,82.186 286.282,81.695 C286.187,81.203 286.111,81.7 286.114,82.8 M197.6,82.2 L187,82.42 L197.476,82.51 C204.128,82.567 208.043,82.454 208.2,82.2 C208.336,81.98 208.392,81.84 208.324,81.89 C208.256,81.939 203.43,82.079 197.6,82.2 M266.531,85.6 C266.533,87.14 266.605,87.721 266.692,86.891 C266.779,86.061 266.777,84.801 266.689,84.091 C266.6,83.381 266.529,84.06 266.531,85.6 M189.076,85.7 C189.798,86.415 190.616,86.995 190.894,86.988 C191.172,86.981 191.04,86.777 190.6,86.534 C190.16,86.292 189.342,85.712 188.781,85.246 C188.221,84.781 188.354,84.985 189.076,85.7 M211.043,84.833 C210.662,85.826 210.781,86.074 211.251,85.266 C211.565,84.726 211.957,84.597 212.739,84.779 C213.533,84.963 213.649,84.922 213.2,84.618 C212.31,84.016 211.318,84.115 211.043,84.833 M284.834,86.353 L283.869,87.6 L285.013,86.512 C285.643,85.914 286.077,85.353 285.979,85.265 C285.88,85.177 285.365,85.667 284.834,86.353 M83.2,85.549 C83.2,85.981 84.789,89 85.016,89 C85.126,89 84.83,88.235 84.359,87.3 C83.432,85.461 83.2,85.111 83.2,85.549 M277.606,85.83 C277.599,86.602 279.237,88.202 280.026,88.194 C280.342,88.191 280.154,87.962 279.608,87.686 C279.062,87.41 278.39,86.738 278.114,86.192 C277.806,85.583 277.61,85.444 277.606,85.83 M96.129,86.513 C97.154,87.658 98.874,88.286 100.453,88.093 C101.721,87.938 101.703,87.924 100.156,87.864 C99.126,87.824 97.93,87.408 96.956,86.75 C95.763,85.944 95.57,85.889 96.129,86.513 M257.918,86.678 C258.073,86.831 259.28,87.011 260.6,87.078 L263,87.2 L263,91.2 L263,95.2 L261.2,95.702 C259.434,96.195 259.429,96.201 260.936,96.022 C263.398,95.728 263.6,95.364 263.6,91.2 C263.6,88.724 263.434,87.362 263.1,87.087 C262.548,86.634 257.467,86.232 257.918,86.678 M221.3,86.891 C222.125,86.978 223.475,86.978 224.3,86.891 C225.125,86.805 224.45,86.734 222.8,86.734 C221.15,86.734 220.475,86.805 221.3,86.891 M194.7,87.693 C195.635,87.777 197.165,87.777 198.1,87.693 C199.035,87.609 198.27,87.54 196.4,87.54 C194.53,87.54 193.765,87.609 194.7,87.693 M239.052,89.065 C238.453,89.98 238.253,90.488 238.608,90.194 C239.212,89.692 240.585,87.4 240.281,87.4 C240.205,87.4 239.652,88.149 239.052,89.065 M323.829,90.029 C323.681,90.615 323.638,91.172 323.732,91.266 C323.827,91.36 324.024,90.958 324.171,90.371 C324.319,89.785 324.362,89.228 324.268,89.134 C324.173,89.04 323.976,89.442 323.829,90.029 M206.028,90.233 C206.044,90.765 206.219,91.56 206.419,92 C206.671,92.558 206.707,92.315 206.538,91.2 C206.255,89.343 205.987,88.836 206.028,90.233 M112.575,91.5 L111.4,92.8 L112.7,91.625 C113.912,90.53 114.184,90.2 113.875,90.2 C113.806,90.2 113.221,90.785 112.575,91.5 M179.6,90.325 C179.6,90.394 180.185,90.979 180.9,91.625 L182.2,92.8 L181.025,91.5 C179.93,90.288 179.6,90.016 179.6,90.325 M345.917,92.241 C344.882,93.318 344.11,94.2 344.203,94.2 C344.567,94.2 347.253,91.648 347.629,90.945 C348.177,89.922 348.064,90.007 345.917,92.241 M297.272,93.113 L297.2,95.425 L292.505,95.313 C288.17,95.209 287.799,95.139 287.666,94.4 C287.587,93.96 287.37,93.439 287.184,93.242 C286.727,92.76 287.212,94.667 287.707,95.3 C288.291,96.047 297.148,96.001 297.436,95.249 C297.553,94.946 297.58,93.821 297.496,92.749 L297.344,90.8 L297.272,93.113 M323.254,92.62 C323.2,93.649 323.825,94.6 324.556,94.6 C324.775,94.6 324.661,94.375 324.305,94.1 C323.948,93.825 323.578,93.15 323.483,92.6 L323.309,91.6 L323.254,92.62 M247.2,92.325 C247.2,92.394 247.785,92.979 248.5,93.625 L249.8,94.8 L248.625,93.5 C247.53,92.288 247.2,92.016 247.2,92.325 M141.702,95 C141.882,95.661 151.425,96.134 152.049,95.513 C152.221,95.341 150.094,95.256 147.32,95.324 C143.504,95.417 142.187,95.32 141.908,94.924 C141.62,94.515 141.575,94.532 141.702,95 M39.862,95.5 C39.964,95.665 42.366,95.8 45.2,95.8 C48.034,95.8 50.436,95.665 50.538,95.5 C50.64,95.335 48.238,95.2 45.2,95.2 C42.162,95.2 39.76,95.335 39.862,95.5 M94.6,95.8 C95.04,95.989 95.76,96.138 96.2,96.132 C96.843,96.123 96.804,96.057 96,95.8 C94.632,95.362 93.581,95.362 94.6,95.8 M188.6,95.781 C189.368,96.129 191.51,96.356 191.167,96.053 C191.075,95.972 190.28,95.796 189.4,95.662 C188.285,95.493 188.042,95.529 188.6,95.781 M280.8,95.8 C279.996,96.057 279.957,96.123 280.6,96.132 C281.04,96.138 281.76,95.989 282.2,95.8 C283.219,95.362 282.168,95.362 280.8,95.8 M99.105,96.483 C99.602,96.579 100.322,96.575 100.705,96.475 C101.087,96.375 100.68,96.296 99.8,96.301 C98.92,96.305 98.607,96.387 99.105,96.483 M193.705,96.487 C194.314,96.579 195.214,96.577 195.705,96.482 C196.197,96.387 195.7,96.311 194.6,96.314 C193.5,96.317 193.097,96.395 193.705,96.487 M221.9,96.482 C222.395,96.578 223.205,96.578 223.7,96.482 C224.195,96.387 223.79,96.309 222.8,96.309 C221.81,96.309 221.405,96.387 221.9,96.482 M255.905,96.483 C256.402,96.579 257.122,96.575 257.505,96.475 C257.887,96.375 257.48,96.296 256.6,96.301 C255.72,96.305 255.407,96.387 255.905,96.483 M276.9,96.476 C277.285,96.576 277.915,96.576 278.3,96.476 C278.685,96.375 278.37,96.293 277.6,96.293 C276.83,96.293 276.515,96.375 276.9,96.476 M333.5,96.482 C333.995,96.578 334.805,96.578 335.3,96.482 C335.795,96.387 335.39,96.309 334.4,96.309 C333.41,96.309 333.005,96.387 333.5,96.482" id="path4" fill="#858585"></path>
        </g>
    </g>
</svg>